<svg id="Layer_1" data-name="Layer 1" xmlns="http://www.w3.org/2000/svg" width="140" version="1.1" viewBox="0 0 211 76">
  <g>
    <path d="M62.293,56.235c2.72,0,4.43-1.959,4.43-4.377s-2.215-4.43-4.927-4.43h-4.279v23.295c0,1.959-1.612,3.624-3.624,3.624s-3.677-1.657-3.677-3.624v-26.919c0-2.012,1.658-3.677,3.677-3.677h7.903c3.217,0,6.291,1.205,8.551,3.368,1.16,1.055,2.064,2.313,2.667,3.677.655,1.507,1.01,3.066,1.01,4.679s-.354,3.119-1.01,4.581c-.603,1.409-1.507,2.667-2.667,3.722-2.26,2.162-4.829,3.368-8.054,3.368-2.012,0-3.677-1.657-3.677-3.624s1.657-3.677,3.677-3.677v.015Z" fill="#ee7833" stroke-width="0"></path>
    <path d="M100.084,70.97c0,1.861-1.507,3.368-3.322,3.368s-3.368-1.507-3.368-3.368v-9.41c0-2.516-2.012-4.528-4.475-4.528s-4.528,2.011-4.528,4.528v9.41c0,1.861-1.507,3.368-3.322,3.368s-3.375-1.507-3.375-3.368v-31.552c0-1.808,1.507-3.323,3.375-3.323s3.322,1.507,3.322,3.323v13.734c1.658-1.763,3.873-2.818,6.291-2.818,5.183,0,9.41,5.033,9.41,11.218v9.41l-.008.008Z" fill="#ee7833" stroke-width="0"></path>
    <path d="M128.109,62.721c0,3.322-1.258,6.442-3.624,8.754-2.312,2.313-5.432,3.624-8.754,3.624s-6.389-1.311-8.702-3.624c-2.365-2.313-3.623-5.432-3.623-8.754s1.258-6.442,3.623-8.754c2.313-2.313,5.432-3.624,8.702-3.624s6.442,1.311,8.754,3.624c2.366,2.313,3.624,5.432,3.624,8.754ZM121.419,62.721c0-3.119-2.516-5.688-5.688-5.688s-5.688,2.569-5.688,5.688,2.569,5.688,5.688,5.688,5.688-2.569,5.688-5.688Z" fill="#ee7833" stroke-width="0"></path>
    <path d="M153.777,70.971c0,1.861-1.507,3.368-3.322,3.368s-3.368-1.507-3.368-3.368v-9.41c0-2.516-2.012-4.528-4.475-4.528s-4.528,2.012-4.528,4.528v9.41c0,1.861-1.507,3.368-3.368,3.368s-3.322-1.507-3.322-3.368v-16.552c0-1.808,1.507-3.323,3.322-3.323,1.507,0,2.72.957,3.172,2.268,1.71-1.861,3.978-3.021,6.442-3.021,5.236,0,9.462,5.033,9.462,11.218v9.41h-.015Z" fill="#ee7833" stroke-width="0"></path>
    <path d="M160.919,46.064c-1.914,0-3.518-1.56-3.518-3.526s1.612-3.518,3.518-3.518,3.518,1.56,3.518,3.518-1.559,3.526-3.518,3.526ZM164.294,54.419v16.552c0,1.861-1.507,3.368-3.322,3.368s-3.375-1.507-3.375-3.368v-16.552c0-1.808,1.506-3.322,3.375-3.322s3.322,1.507,3.322,3.322Z" fill="#ee7833" stroke-width="0"></path>
    <path d="M188.245,66.744c1.311,1.311,1.311,3.42,0,4.731-2.365,2.313-5.484,3.624-8.754,3.624s-6.442-1.311-8.755-3.624c-2.365-2.366-3.623-5.432-3.623-8.754s1.258-6.389,3.623-8.754c2.313-2.313,5.432-3.624,8.755-3.624s6.389,1.311,8.754,3.624c1.311,1.311,1.311,3.42,0,4.731-1.311,1.311-3.42,1.311-4.731,0-1.108-1.055-2.516-1.657-4.023-1.657s-2.969.603-4.023,1.657c-1.055,1.055-1.658,2.516-1.658,4.023s.603,2.968,1.658,4.023c1.054,1.055,2.463,1.658,4.023,1.658s2.915-.603,4.023-1.658c1.311-1.311,3.42-1.311,4.731,0Z" fill="#ee7833" stroke-width="0"></path>
    <path d="M210.334,66.594c0,2.366-1.16,4.678-3.172,6.238-1.808,1.462-4.324,2.268-6.946,2.268-2.818,0-5.485-.859-7.7-2.418-1.506-1.055-1.861-3.172-.806-4.679,1.055-1.507,3.172-1.861,4.679-.806,1.107.806,2.418,1.205,3.827,1.205,1.107,0,2.162-.301,2.818-.806.203-.203.602-.55.602-1.01,0-1.205-2.463-1.205-3.322-1.356-1.71-.249-3.473-.55-5.085-1.409-2.313-1.205-3.572-3.375-3.572-6.087,0-2.215.905-4.226,2.57-5.537,1.506-1.258,3.525-1.861,5.989-1.861,2.012,0,4.227.452,6.035,1.205,1.71.655,2.569,2.614,1.861,4.324-.55,1.311-1.809,2.117-3.12,2.117-.399,0-.858-.098-1.258-.249-1.009-.452-2.365-.708-3.518-.708-.452,0-1.808-.053-1.861.708,0,.753,2.215.753,3.021.904,1.71.249,3.624.55,5.334,1.507,1.108.603,2.012,1.462,2.614,2.516.709,1.107,1.01,2.418,1.01,3.925v.008Z" fill="#ee7833" stroke-width="0"></path>
    <path d="M20.925,1.681c-1.665,0-3.021,1.349-3.021,3.021v11.708H6.392v-6.803c0-1.665-1.356-3.277-3.021-3.277S.357,7.942.357,9.607v20.018c0,1.665,1.349,3.021,3.021,3.021s3.021-1.349,3.021-3.021v-8.099h11.512v8.114c0,1.665,1.356,3.021,3.021,3.021s3.021-1.349,3.021-3.021V4.702c0-1.665-1.348-3.021-3.021-3.021h-.007Z" fill="#19b9d6" stroke-width="0"></path>
    <path d="M37.047,12.122c-2.765,0-5.394,1.108-7.353,3.059-1.996,1.951-3.059,4.588-3.059,7.391s1.062,5.439,3.059,7.391c1.951,1.951,4.588,3.059,7.353,3.059s5.439-1.107,7.391-3.059c1.996-1.951,3.059-4.588,3.059-7.391s-1.062-5.439-3.059-7.391c-1.951-1.951-4.588-3.059-7.391-3.059ZM37.047,27.371c-2.637,0-4.799-2.17-4.799-4.799s2.17-4.799,4.799-4.799,4.799,2.162,4.799,4.799-2.125,4.799-4.799,4.799Z" fill="#19b9d6" stroke-width="0"></path>
    <path d="M59.799,12.122c-2.765,0-5.394,1.108-7.353,3.059-1.997,1.951-3.059,4.588-3.059,7.391s1.062,5.439,3.059,7.391c1.951,1.951,4.588,3.059,7.353,3.059s5.44-1.1,7.391-3.059c1.997-1.951,3.059-4.588,3.059-7.391s-1.062-5.439-3.059-7.391c-1.951-1.951-4.588-3.059-7.391-3.059ZM59.799,27.371c-2.637,0-4.799-2.17-4.799-4.799s2.17-4.799,4.799-4.799,4.799,2.162,4.799,4.799-2.125,4.799-4.799,4.799Z" fill="#19b9d6" stroke-width="0"></path>
    <path d="M134.596.099c-1.575,0-2.848,1.273-2.848,2.803v11.346c-1.567-1.318-3.571-2.125-5.733-2.125-5.229,0-9.516,4.671-9.516,10.45s4.287,10.45,9.516,10.45c2.252,0,4.332-.851,5.989-2.336.422,1.017,1.447,1.703,2.592,1.703,1.529,0,2.802-1.273,2.802-2.848V2.901c0-1.529-1.273-2.803-2.802-2.803ZM126.949,27.372c-2.637,0-4.799-2.17-4.799-4.799s2.17-4.799,4.799-4.799,4.799,2.125,4.799,4.799-2.125,4.799-4.799,4.799Z" fill="#19b9d6" stroke-width="0"></path>
    <path d="M95.292,27.229c1.009,1.01,2.162,1.793,3.503,2.335,2.697,1.123,5.718,1.19,8.626.234,2.501-.829,4.664-2.396,6.193-4.415.889-1.236.648-3.036-.64-3.948-1.243-.927-2.991-.663-3.91.625-.806,1.07-2.042,1.929-3.421,2.381-1.612.535-3.277.505-4.671-.068-.58-.256-1.085-.58-1.476-.942l10.803-3.579c1.492-.497,2.049-2.336,1.401-3.729-2.23-4.852-7.548-7.255-12.385-5.658-1.334.444-2.486,1.138-3.481,2.049-1.009.874-1.778,1.929-2.358,3.149-1.107,2.471-1.303,5.266-.437,7.888.467,1.409,1.228,2.637,2.245,3.684l.008-.007ZM101.093,15.83c1.695-.558,3.556.075,4.739,1.477l-7.662,2.539c.113-1.831,1.19-3.435,2.923-4.008v-.007Z" fill="#19b9d6" stroke-width="0"></path>
    <path d="M84.963,22.881l.128-.151,4.415-5.183c1.658-1.914.211-4.633-2.253-4.633-.889,0-1.529.339-2.079.979l-6.924,9.478V3.067c0-1.575-1.236-2.803-2.803-2.803s-2.848,1.236-2.848,2.803v26.64c0,1.612,1.356,2.848,2.848,2.848.806,0,1.612-.339,2.17-.979l3.511-4.438" fill="#19b9d6" stroke-width="0"></path>
    <path d="M20.969,50.478c0,2.803-1.062,5.432-3.059,7.383-1.951,1.951-4.581,3.051-7.383,3.051s-5.387-1.1-7.338-3.051c-1.996-1.951-3.059-4.581-3.059-7.383s1.062-5.432,3.059-7.383c1.951-1.951,4.581-3.051,7.338-3.051s5.432,1.1,7.383,3.051c1.997,1.951,3.059,4.581,3.059,7.383ZM15.327,50.478c0-2.629-2.125-4.792-4.792-4.792s-4.792,2.162-4.792,4.792,2.162,4.792,4.792,4.792,4.792-2.162,4.792-4.792Z" fill="#19b9d6" stroke-width="0"></path>
    <path d="M42.312,57.44c0,1.567-1.273,2.84-2.803,2.84s-2.84-1.273-2.84-2.84v-7.933c0-2.125-1.695-3.82-3.774-3.82s-3.82,1.695-3.82,3.82v7.933c0,1.567-1.273,2.84-2.84,2.84s-2.803-1.273-2.803-2.84v-13.96c0-1.529,1.273-2.803,2.803-2.803,1.273,0,2.29.806,2.674,1.906,1.447-1.567,3.353-2.546,5.432-2.546,4.415,0,7.978,4.242,7.978,9.463v7.933l-.007.007Z" fill="#19b9d6" stroke-width="0"></path>
  </g>
  <path id="path" d="M81.823,23.281c17.045,22.459,32.842,9.741,32.842,9.741" fill="none" stroke-linecap="round" stroke="#00b8d6" stroke-miterlimit="10" stroke-width="5">
    <animate accumulate="none" additive="replace" attributeName="stroke-dasharray" calcMode="spline" begin=".5s" dur="7s" fill="freeze" from="0 1000" keySplines="0.4 0 0.2 1" keyTimes="0;1" restart="always" to="1000 0"></animate>
  </path>
</svg>